<svg xmlns="http://www.w3.org/2000/svg" width="750" height="750"><path fill="#fefefe" d="M0 0h750v750H0z"/><path fill="#fe9f9a" d="M43 157h659v128H43z"/><path fill="#feeaa4" d="M42 302h665v118H42z"/><path fill="#b4bdfe" d="M39 583h665v116H39z"/><path fill="#adfcb0" d="M40 443h667v112H40z"/><path d="M0 0h750v750H0zm13 13v725h725V13z"/><path fill="#fff" d="M0 0h750v750H0zm5 5v741h741V5z"/><path d="M698 50c8.616 7.977 14.03 18.213 15 30 .135 13.495-3.784 25.206-13 35.16-8.566 8.183-19.26 12.753-31.129 12.871-13.5-.637-24.759-5.419-34.121-15.219-7.799-9.259-11.191-20.258-10.625-32.25 1.361-13.316 7.168-24.163 17.39-32.773C658.81 35.336 681.636 36.547 698 50"/><path fill="#06070a" d="M328 616c3.67 1.962 6.834 4.308 10 7v-5h7c.102 7.686.172 15.372.22 23.06q.03 3.918.082 7.838c.048 3.763.071 7.526.089 11.29l.062 3.52c.002 8.426-1.71 13.035-6.265 20.105-5.985 5.984-12.484 5.559-20.567 5.683-5.672-.777-10.073-4.06-13.621-8.496-1.25-3.75-1.25-3.75-2-7h8l.75 2.938L313 680c3.194 1.264 6.535 1.199 9.938 1.25l3.09.078c3.425-.378 5.231-1.269 7.972-3.328 3.128-5.475 3.636-10.77 4-17l-1.645 1.277-2.168 1.66-2.144 1.653c-3.666 2.53-6.772 2.546-11.106 2.535l-3.222.008C315 668 315 668 313 667v-2l-2.25-.625c-4.745-2.372-6.292-6.07-8-10.937-1.72-8.015-2.27-18.839 1.25-26.438 2.382-3.046 5.033-5.531 8-8l2.313-2c4.6-1.712 8.87-1.935 13.687-1"/><path fill="#080404" d="M338 200c1.727 1.605 1.727 1.605 3 3l1-5h7q.106 10.992.155 21.985c.016 3.403.037 6.806.071 10.21.04 3.916.054 7.833.067 11.75l.047 3.685c.001 6.87-.256 11.798-4.918 17.198-6.095 5.184-11.916 6.632-19.863 6.414-4.965-.47-9.55-1.298-13.23-4.86-2.643-3.458-3.329-4.86-3.329-9.382 3.25-.375 3.25-.375 7 0l1.625 3c2.053 3.28 2.053 3.28 5.297 3.504 8.579.17 8.579.17 16.078-3.504 3.68-5.028 3.318-10.037 3-16l-2.812 2.438c-4.858 4.21-9.815 3.898-16.016 3.843-5.307-.47-7.74-2.849-11.36-6.469-5.749-8.92-6.363-19.467-4.19-29.753 2.156-6.28 5.893-10.376 11.378-14.059 7.084-2.361 13.371-1.086 20 2"/><path fill="#070604" d="M331 331c3.438 1.813 3.438 1.813 6 4l2.375 1.75L341 338v-5h7c.102 7.686.172 15.372.22 23.06q.03 3.918.082 7.838c.048 3.763.071 7.526.089 11.29l.062 3.52c.002 7.386-.781 13.143-5.794 18.808-5.62 5.192-11.936 5.807-19.237 5.597L321 403l-3.75-.125c-4.332-1.166-6.794-3.125-9.25-6.875-.875-3.875-.875-3.875-1-7 3.25-.375 3.25-.375 7 0 2.313 2.938 2.313 2.938 4 6 2.677 1.338 4.824 1.206 7.813 1.25l3.144.078c3.468-.374 5.273-1.24 8.043-3.328 3.128-5.475 3.636-10.77 4-17l-1.39 1.023-1.86 1.352-1.828 1.336c-5.345 3.585-9.577 3.785-15.922 3.289-4.686-1.25-8.551-3.689-11.168-7.863-4.595-8.809-5.495-19.336-2.77-28.95 2.289-5.889 6.543-10.058 11.188-14.187 4.54-1.65 8.988-1.644 13.75-1"/><path fill="#060906" d="M340.035 484.016c6.061 2.963 9.751 5.994 12.965 11.984 2.406 7.136 2.27 18.09-.562 25-2.781 5.138-6.467 10.417-11.696 13.203-3.47 1.009-6.568 1.099-10.18 1.11l-3.87.05c-5.094-.501-8.339-2.3-12.317-5.426-6.761-8.362-7.45-17.46-6.375-27.937 1.407-6.81 3.65-11.614 9.219-15.879 6.91-4.349 15.035-4.709 22.816-2.105M209.285 485.75 211 487l1.746 1.25c3.926 3.314 5.322 6.667 6.078 11.695.486 8.436.188 17.105-2.824 25.055h-2l-.625 2.25c-1.792 3.584-3.936 4.785-7.375 6.75-3.636 1.212-7.024 1.261-10.812 1.313l-2.12.087c-6.476.08-9.845-2.539-14.756-6.65-5.059-6.016-5.873-12.6-5.812-20.187l.02-2.538c.187-6.332.999-11.264 5.48-16.025 8.414-7.781 20.948-10.544 31.285-4.25"/><path fill="#07080b" d="m377.813 615.813 3.644-.043c6.842.445 10.676 2.703 15.543 7.23 1.61 3.219 1.242 6.748 1.316 10.29l.063 2.48q.097 3.927.183 7.855l.131 5.32q.161 6.528.307 13.055h5v6c-8.635.44-8.635.44-13-3l-1-2c-2.702 1.033-5.065 2.042-7.5 3.625-5.344 2.1-10.828 2.1-16.5 1.375-4.067-2.068-6.774-3.96-9-8-.828-4.972-1.158-9.767 1.21-14.336 1.515-1.882 2.764-3.345 4.79-4.664h4v-2l1.912-.26q4.263-.584 8.526-1.178l3.01-.408 2.86-.4 2.65-.365c2.029-.188 2.029-.188 3.042-1.389.513-4.068.513-4.068 0-8-3.598-2.91-6.508-3.41-11.062-3.375l-3.098-.023c-3.187.447-4.56 1.16-6.84 3.398-.804 2.599-.804 2.599-1 5h-8c0-6.82 0-6.82 2.742-10.055 5.37-4.74 8.834-6.094 16.07-6.133"/><path fill="#0a0906" d="M392.469 331.719c3.71 2.017 6.27 4.776 8.531 8.281.589 2.861.605 5.668.61 8.582l.05 2.467c.048 2.588.07 5.175.09 7.764q.042 2.64.09 5.279c.074 4.302.123 8.605.16 12.908h5v6c-8.635.44-8.635.44-13-3l-1-2c-2.702 1.033-5.065 2.042-7.5 3.625-5.438 2.136-10.735 2.035-16.5 1.375-4.48-2.085-7.222-4.359-9-9-.704-4.585-1.027-8.917 1.066-13.164 4.421-5.661 10.421-7.634 17.399-8.531q2.234-.23 4.473-.43c4.927-.046 4.927-.046 9.062-1.875.413-4.048.413-4.048 0-8-2.3-2.473-3.73-2.965-7.094-3.398l-3.406.023-3.406-.023c-3.348.43-4.732 1.03-7.094 3.398-.804 2.599-.804 2.599-1 5h-8c0-6.82 0-6.82 2.742-10.055 7.613-6.72 17.884-8.092 27.727-5.226"/><path fill="#0b0606" d="M397 200c2.29 1.938 3.669 3.338 5 6 .087 2.699.116 5.372.098 8.07l-.005 2.413c-.005 2.547-.018 5.095-.03 7.642q-.009 2.587-.014 5.176A5665 5665 0 0 1 402 242h6c.043 2 .04 4 0 6-1 1-1 1-4.875 1.25-3.827-.048-3.827-.048-6.062-1.562C396 246 396 246 395 243c-2 .991-3.984 1.99-5.937 3.07-6.274 3.208-12.08 3.915-19.063 2.93-4.618-2.187-6.726-4.496-9-9-.867-5.433-1.102-10.348 2-15l3-2 3.25-2.187c5.001-2.404 10.474-2.676 15.935-3.13 4.367-.233 4.367-.233 7.815-2.683.472-4.061.472-4.061 0-8-2.3-2.455-3.748-2.965-7.094-3.434-1.124 0-2.248-.002-3.406-.004l-3.406-.058c-3.702.594-4.844 1.555-7.094 4.496-.797 2.642-.797 2.642-1 5h-8c-.501-5.264.688-7.91 4-12h2v-2c9.104-3.388 19.299-3.43 28 1"/><path fill="#050805" d="M605.438 487.5c3.441 3.304 2.78 8.003 2.878 12.45l.063 2.34q.098 3.7.183 7.397l.131 5.018q.16 6.147.307 12.295l5 2c.043 1.666.04 3.334 0 5-1 1-1 1-4.812 1.375-3.537-.025-3.965-.163-6.688-2.75C601 530 601 530 601 528l-1.863 1.277-2.45 1.66-2.425 1.653c-3.9 2.432-7.124 2.598-11.637 2.66l-3.398.078c-3.6-.366-5.377-1.132-8.227-3.328-3.463-4.564-4.738-9.305-4-15 1.744-4.68 3.82-7.278 8-10 5.6-2.236 11.133-2.672 17.074-3.21 4.424-.309 4.424-.309 7.926-2.79.417-3.5.417-3.5 0-7l-3-2v-2c-2.418-.108-4.83-.187-7.25-.25l-2.066-.102c-3.492-.067-5.315.068-8.121 2.227-1.554 2.113-2.195 3.55-2.563 6.125h-7c-.504-4.23-.21-5.706 2.313-9.25 8.73-8.933 23.08-7.431 33.125-1.25"/><path fill="#050705" d="M260.875 484.313c1.853 1.471 3.538 2.933 5.125 4.687 2.217-1.03 4.109-2.082 6.063-3.562 4.431-3.289 9.662-2.998 14.937-2.438 4.173 1.285 6.546 3.169 8.673 7.063 1.76 4.432 1.707 8.658 1.62 13.37l-.013 2.661c-.017 2.781-.054 5.562-.092 8.344q-.024 2.842-.042 5.685c-.032 4.626-.084 9.251-.146 13.877h-8l-.044-3.732c-.058-4.559-.135-9.117-.218-13.675q-.051-2.963-.084-5.925c-.034-2.835-.086-5.67-.142-8.504l-.02-2.686-.06-2.487-.033-2.194c-.274-2.213-.274-2.213-3.399-3.797a30.7 30.7 0 0 0-10 0c-2.824 2.19-4.415 3.83-6 7a220 220 0 0 0-.316 8.07l-.063 2.413q-.097 3.821-.183 7.642l-.131 5.176q-.161 6.35-.307 12.699h-8l-.012-3.5c-.022-4.297-.077-8.592-.14-12.888a583 583 0 0 1-.044-5.572c-.009-2.674-.05-5.347-.097-8.02l.012-2.507c-.11-4.34-.333-6.027-3.123-9.544-2.745-2.082-3.678-2.626-7.034-2.219l-2.183.172c-3.807 1.725-6.152 4.58-8.379 8.078-.806 2.875-.84 5.585-.805 8.559l-.041 2.391c-.037 2.496-.034 4.99-.029 7.488q-.027 2.553-.062 5.107A922 922 0 0 0 238 534h-8v-50h8v6l1.645-1.277 2.167-1.66 2.145-1.653c4.966-3.428 11.522-3.56 16.918-1.098M447.125 486.648c4.988 3.596 6.722 6.202 7.875 12.352v12h-36c1.218 8.84 1.218 8.84 5.828 15.719 3.896 2.298 7.802 1.981 12.172 1.281 4.334-1.743 7.284-3.658 9.5-7.812L447 518h8l-1 6h-2l-.687 2.25c-1.906 3.992-4.599 5.908-8.524 7.836-6.19 2.029-14.191 2.117-20.406.039-6.684-3.834-9.31-9.902-11.383-17.125-.87-9.53-.298-18.583 4.75-26.875 8.8-8.312 21.085-10.055 31.375-3.477"/><path fill="#050805" d="M122 465h8l1 24 7-5c5.12-1.706 11.001-1.992 16.172-.281 3.85 2.04 6.054 4.34 7.828 8.281 1.242 4.21 1.125 8.349 1.098 12.703l-.005 2.539c-.005 2.67-.018 5.339-.03 8.008q-.008 2.718-.014 5.438-.017 6.656-.049 13.312h-8v-39h-2l-1.125-2c-1.85-2.413-1.85-2.413-5.625-2.375-4.047.253-7.526.656-11.25 2.375-5.359 7.534-4.669 16.129-4.75 25a2058 2058 0 0 1-.09 4.66c-.073 3.78-.123 7.56-.16 11.34h-8z"/><path fill="#090d09" d="M392 484.125c4.664 2.915 7.48 5.717 8.813 11.25L401 498h-8l-1.375-2.937c-1.283-3.134-1.283-3.134-3.625-4.063v-2l-15 1-1 9c5.46 4.139 10.763 5.47 17.367 6.979 5.397 1.349 8.812 2.893 12.633 7.021 1.326 4.832.71 10.305-1.375 14.875-3.053 4.43-7.595 6.577-12.625 8.125-6.928.924-12.948.582-19-3-3.832-3.222-6.123-6.357-8-11v-4h9l.813 3.313c1.216 4.086 1.216 4.086 4.187 6.687 3.29.478 3.29.478 6.938.375l3.714.023c3.51-.417 4.989-.793 7.348-3.398.48-2.049.48-2.049.25-4.187L393 517c-5.718-2.723-11.576-4.33-17.695-5.937-5.43-1.746-9.38-4.079-12.305-9.063-.843-4.604-.43-8.05 1.5-12.312 7.068-7.598 17.742-9.129 27.5-5.563"/><path fill="#a9f6ac" d="m330.5 488.875 2.344-.008c2.843.175 4.66.652 6.726 2.656l1.555 1.852 1.57 1.836c3.953 5.42 2.917 14.336 2.305 20.789-1.122 4.604-2.417 7.806-6.242 10.691-5.073 2.407-10.295 2.263-15.758 1.309-4.075-2.558-5.603-6.024-7.375-10.375-1.46-8.47-.886-15.931 3.375-23.625 2.14-1.316 2.14-1.316 4-2v-2c2.812-.937 4.587-1.135 7.5-1.125"/><path fill="#aaf7ad" d="M201 489c4.977 2.981 8.318 6.39 10 12 .856 8.242.668 15.927-4 23-2.471 2.858-4.453 3.887-8.305 4.168-9.385.071-9.385.071-12.695-2.168-5.277-7.126-5.59-14.344-5-23 1-5.522 3.444-9.495 7.914-12.918 4.034-2.093 7.725-2.225 12.086-1.082"/><path fill="#050303" d="M412 198h9q2.572 7.605 5.127 15.216.87 2.59 1.746 5.177 1.256 3.717 2.502 7.439l.795 2.34c1.02 3.056 1.83 5.584 1.83 8.828 2.983-1.492 3.181-3.902 4.209-6.907l.83-2.503.866-2.552c.914-2.698 1.817-5.399 2.72-8.1l1.852-5.479A4524 4524 0 0 0 448 198h8c-.916 4.731-1.942 9.105-3.8 13.555-2.384 5.839-4.516 11.756-6.637 17.695-.397 1.1-.793 2.2-1.2 3.334-1.651 4.59-3.297 9.178-4.847 13.803-5.79 17.087-5.79 17.087-11.371 20.87-2.582.894-4.67.94-7.395.868l-2.703-.055L416 268v-7l2.082-.191c2.79-.38 5.269-.85 7.918-1.809 3.038-4.34 3.208-7.555 2.473-12.7-.913-4.441-2.512-8.641-4.07-12.89l-1.073-2.985a2582 2582 0 0 0-3.392-9.363q-1.705-4.717-3.404-9.437a2346 2346 0 0 0-2.12-5.856l-.961-2.652-.852-2.342C412 199 412 199 412 198"/><path fill="#030304" d="M408 617h9a7728 7728 0 0 1 5.127 15.643q.87 2.662 1.746 5.323 1.256 3.821 2.502 7.647l.795 2.406c1.006 3.099 1.83 5.701 1.83 8.981 2.456-.947 2.456-.947 3.42-4.694a576 576 0 0 0 1.62-4.935l.865-2.619c.914-2.77 1.817-5.542 2.72-8.314l1.852-5.624Q441.749 623.911 444 617h8c-.699 3.819-1.678 7.476-2.812 11.188l-.958 3.167c-1.247 3.696-2.665 7.282-4.13 10.895-2.393 5.986-4.59 12.048-6.832 18.092-9.13 24.496-9.13 24.496-14.268 27.658-3.691.32-7.306.23-11 0v-7l5.957-.684c2.237-.288 2.237-.288 5.043-1.316.363-1.66.687-3.33 1-5l.761-3.5c.677-5.639-1.385-10.298-3.382-15.492l-1.148-3.113a1350 1350 0 0 0-3.668-9.77 4730 4730 0 0 1-3.658-9.835q-1.136-3.054-2.287-6.103l-1.042-2.772-.924-2.444C408 619 408 619 408 617"/><path fill="#050805" d="M463 484c3.542-.719 6.481-.911 10 0 3.354 3.258 5.65 6.98 8 11l1.723 2.863L484 500c2.12-2.554 4.042-5.069 5.79-7.895 4.882-7.76 4.882-7.76 8.952-8.816 2.509.021 4.802.213 7.258.711-4.196 6.779-8.569 13.198-13.594 19.395-1.632 2.536-1.632 2.536-1.422 5.5 1.265 3.868 3.321 6.788 5.766 9.98q1.366 1.842 2.727 3.688l1.32 1.78c2.256 3.108 4.229 6.367 6.203 9.657-4.05 1.199-6.988 1.424-11 0-4.66-4.858-7.843-11.101-11-17-3.455 1.152-3.56 1.525-5.129 4.598-6.447 11.878-6.447 11.878-10.75 13.46-2.548-.054-4.688-.313-7.121-1.058 1.906-6.005 5.981-10.744 9.656-15.762 4.045-5.214 4.045-5.214 6.344-11.238-1.269-2.675-1.269-2.675-3.437-5.187l-2.247-2.883L470 496a403 403 0 0 1-4-5.562l-1.75-2.442C463 486 463 486 463 484"/><path fill="#020201" d="M411 332h9a7728 7728 0 0 1 5.127 15.643q.87 2.662 1.746 5.323 1.256 3.821 2.502 7.647l.795 2.406c1.006 3.099 1.83 5.701 1.83 8.981 2.456-.947 2.456-.947 3.42-4.694a576 576 0 0 0 1.62-4.935l.865-2.619c.914-2.77 1.817-5.542 2.72-8.315l1.852-5.623Q444.749 338.911 447 332h8c-3.457 14.058-8.089 28.05-13.89 41.313-1.189 2.877-2.122 5.777-3.048 8.75-2.126 6.57-5.186 15.786-11.062 19.937-2.918.293-2.918.293-6.187.188l-3.293-.083L415 402v-6l5.957-.684c2.237-.288 2.237-.288 5.043-1.316.363-1.66.687-3.33 1-5l.73-3.58c.627-5.212-1-9.323-2.843-14.143l-1-2.74c-1.05-2.873-2.124-5.736-3.2-8.6q-1.588-4.303-3.168-8.61-.982-2.67-1.98-5.336c-1.722-4.624-3.257-9.225-4.539-13.991"/><path fill="#040704" d="M515 484h8l.044 3.425c.058 4.197.135 8.394.218 12.59q.051 2.724.084 5.448c.034 2.612.086 5.222.142 7.834l.02 2.456c.086 3.3.248 5.797 1.836 8.728 3.075 2.82 6.553 2.874 10.593 2.785 3.635-.468 5.435-1.76 8.063-4.266 4.026-7.525 3.551-16.267 3.688-24.562q.05-2.108.103-4.213.123-5.113.209-10.225h7v50h-7v-7h-2l-.785 1.86c-2.09 3.683-5.277 4.893-9.215 6.14-5.43.768-9.586.732-14.5-1.812L519 531l-1.812-1.562c-2.187-2.647-2.312-5.262-2.302-8.542v-2.487l.016-2.67.005-2.746c.005-2.893.018-5.787.03-8.68q.009-2.943.014-5.885.017-7.215.049-14.428"/><path fill="#f6e39f" d="M332 339c4.041 1.804 5.543 3.268 7.875 7 2.618 7.263 1.936 15.977-.84 23.09-2.093 3.861-4.702 6.165-8.992 7.535-4.894.898-7.991.137-12.043-2.625-4.81-5.2-5.203-9.457-5.25-16.312l-.062-2.264c-.043-6.05 1.342-10.085 5.312-14.799 4.597-2.49 8.889-2.353 14-1.625"/><path fill="#afb8f6" d="M329 624c4.041 1.804 5.543 3.268 7.875 7 2.618 7.263 1.936 15.977-.84 23.09-2.093 3.861-4.702 6.165-8.992 7.535-4.894.898-7.991.137-12.043-2.625-4.777-5.165-5.225-9.434-5.312-16.25l-.088-2.238c-.065-5.662 1.11-8.88 4.4-13.512 4.28-4.272 9.308-3.726 15-3"/><path fill="#f79b96" d="m333 204 2 1v2l1.813.563c3.262 2.143 4.31 4.767 5.187 8.437.703 6.927.722 13.909-3 20-3.814 4.268-7.153 5.874-12.754 6.195-4.026-.35-6.044-1.698-9.246-4.195-3.121-4.893-3.464-8.883-3.375-14.5l-.035-2.223c.033-6.154 1.887-10.088 5.41-15.152 4.437-3.143 8.717-2.72 14-2.125"/><path fill="#070a07" d="M623 465h8v69h-8z"/><path fill="#acb5f2" d="M390 642v12h-2l-.625 1.75c-2.015 3.297-3.91 4.518-7.375 6.25-4.387.63-8.34.973-12.246-1.316C366 659 366 659 365.062 655.625c-.072-4.182.07-5.588 2.938-8.625 6.4-3.173 14.87-5 22-5"/><path fill="#f2e09d" d="M393 357v12h-2l-.625 1.75c-2.015 3.297-3.91 4.518-7.375 6.25-4.387.63-8.34.973-12.246-1.316C369 374 369 374 368.062 370.625c-.072-4.182.07-5.588 2.938-8.625 6.4-3.173 14.87-5 22-5"/><path fill="#a5f0a8" d="M440 490v2l1.813.688c2.867 1.72 3.808 3.277 5.187 6.312v6h-28c1.13-7.911 1.13-7.911 4.375-11.375l1.836-2.023C429.345 487.9 435 488.334 440 490"/><path fill="#aaf8ad" d="M600 509c.46 8.758.46 8.758-1.062 12.875-3.243 3.556-6.49 5.79-11.254 6.441-4.19.104-6.99-.231-10.684-2.316v-2h-2c-.483-6.284-.483-6.284 1.414-9.094 3.777-2.784 7.654-3.326 12.211-4.156l2.64-.523C597.556 509 597.556 509 600 509"/><path fill="#f89b97" d="M394 223c.621 9.853.621 9.853-1.625 14-5.389 4.538-9.916 5.622-16.871 5.414C373 242 373 242 370.312 239.875c-1.53-3.351-1.931-5.238-1.312-8.875 3.4-4.86 8.145-5.252 13.625-6.25l2.64-.523C391.556 223 391.556 223 394 223"/><path fill="#c3b37d" d="M341 376c.369 10.558.369 10.558-2 15-1.283-3.85-1.066-6.947-1-11l-2-1c2.75-3 2.75-3 5-3"/><path fill="#858cbd" d="M338 661q.079 2.406.125 4.813l.07 2.707C338 671 338 671 336 674l-1-9h-3c3.75-4 3.75-4 6-4"/><path fill="#74aa76" d="m588.75 488.75 3.547.11L595 489v1l-2.52.078-3.293.172-3.269.14c-3.035.325-3.035.325-4.68 2.657L580 495h-2l-1 3c.332-2.987.8-4.735 2.625-7.156 3.178-2.467 5.154-2.253 9.125-2.094"/><path fill="#c67c78" d="M448 196h10l-1 4-1-2h-8z"/></svg>