<?xml version="1.0" encoding="UTF-8"?>
<svg version="1.1" xmlns="http://www.w3.org/2000/svg" width="750" height="750">
<path d="M0 0 C247.5 0 495 0 750 0 C750 247.5 750 495 750 750 C502.5 750 255 750 0 750 C0 502.5 0 255 0 0 Z " fill="#FEFEFE" transform="translate(0,0)"/>
<path d="M0 0 C217.47 0 434.94 0 659 0 C659 42.24 659 84.48 659 128 C441.53 128 224.06 128 0 128 C0 85.76 0 43.52 0 0 Z " fill="#FE9F9A" transform="translate(43,157)"/>
<path d="M0 0 C219.45 0 438.9 0 665 0 C665 38.94 665 77.88 665 118 C445.55 118 226.1 118 0 118 C0 79.06 0 40.12 0 0 Z " fill="#FEEAA4" transform="translate(42,302)"/>
<path d="M0 0 C219.45 0 438.9 0 665 0 C665 38.28 665 76.56 665 116 C445.55 116 226.1 116 0 116 C0 77.72 0 39.44 0 0 Z " fill="#B4BDFE" transform="translate(39,583)"/>
<path d="M0 0 C220.11 0 440.22 0 667 0 C667 36.96 667 73.92 667 112 C446.89 112 226.78 112 0 112 C0 75.04 0 38.08 0 0 Z " fill="#ADFCB0" transform="translate(40,443)"/>
<path d="M0 0 C247.5 0 495 0 750 0 C750 247.5 750 495 750 750 C502.5 750 255 750 0 750 C0 502.5 0 255 0 0 Z M13 13 C13 252.25 13 491.5 13 738 C252.25 738 491.5 738 738 738 C738 498.75 738 259.5 738 13 C498.75 13 259.5 13 13 13 Z " fill="#000000" transform="translate(0,0)"/>
<path d="M0 0 C247.5 0 495 0 750 0 C750 247.5 750 495 750 750 C502.5 750 255 750 0 750 C0 502.5 0 255 0 0 Z M5 5 C5 249.53 5 494.06 5 746 C249.53 746 494.06 746 746 746 C746 501.47 746 256.94 746 5 C501.47 5 256.94 5 5 5 Z " fill="#FFFFFF" transform="translate(0,0)"/>
<path d="M0 0 C8.61595595 7.97715994 14.03069774 18.21259221 15 30 C15.13478053 43.49490033 11.21647653 55.20564156 2 65.16015625 C-6.56570768 73.34346627 -17.26030942 77.9127122 -29.12890625 78.03125 C-42.62869552 77.39371568 -53.88795471 72.61202404 -63.25 62.8125 C-71.04876875 53.55340404 -74.4413141 42.55420102 -73.875 30.5625 C-72.51365665 17.24637135 -66.70659749 6.39905527 -56.484375 -2.2109375 C-39.19103252 -14.66431935 -16.36566991 -13.45288095 0 0 Z " fill="#000000" transform="translate(698,50)"/>
<path d="M0 0 C3.6700687 1.96192502 6.83433444 4.30815423 10 7 C10 5.35 10 3.7 10 2 C12.31 2 14.62 2 17 2 C17.1017053 9.68624527 17.17159403 17.37231595 17.21972656 25.05908203 C17.23979933 27.67210373 17.26706358 30.28508075 17.30175781 32.89794922 C17.35046435 36.66124522 17.37301311 40.42394549 17.390625 44.1875 C17.41127014 45.34926758 17.43191528 46.51103516 17.45318604 47.70800781 C17.45549911 56.1337813 15.74355082 60.74276596 11.1875 67.8125 C5.20304244 73.79695756 -1.296191 73.37199884 -9.37890625 73.49609375 C-15.05146052 72.7189477 -19.45177387 69.43528266 -23 65 C-24.25 61.25 -24.25 61.25 -25 58 C-22.36 58 -19.72 58 -17 58 C-16.7525 58.969375 -16.505 59.93875 -16.25 60.9375 C-15.8375 61.948125 -15.425 62.95875 -15 64 C-11.80602411 65.26443439 -8.46471182 65.19851634 -5.0625 65.25 C-4.04285156 65.27578125 -3.02320313 65.3015625 -1.97265625 65.328125 C1.45274531 64.95002548 3.25899512 64.05935393 6 62 C9.12842024 56.52526459 9.63645823 51.2303538 10 45 C9.18595703 45.63228516 9.18595703 45.63228516 8.35546875 46.27734375 C7.64003906 46.82519531 6.92460937 47.37304688 6.1875 47.9375 C5.47980469 48.48277344 4.77210938 49.02804687 4.04296875 49.58984375 C0.37743163 52.11997549 -2.72912612 52.13553068 -7.0625 52.125 C-8.12597656 52.12757813 -9.18945312 52.13015625 -10.28515625 52.1328125 C-13 52 -13 52 -15 51 C-15 50.34 -15 49.68 -15 49 C-15.7425 48.79375 -16.485 48.5875 -17.25 48.375 C-21.99483647 46.00258176 -23.54193772 42.30547751 -25.25 37.4375 C-26.96968978 29.42251725 -27.51953575 18.59932413 -24 11 C-21.61767042 7.95383026 -18.96706353 5.46868958 -16 3 C-15.236875 2.34 -14.47375 1.68 -13.6875 1 C-9.08646271 -0.71201388 -4.81756309 -0.93532475 0 0 Z " fill="#06070A" transform="translate(328,616)"/>
<path d="M0 0 C1.7265625 1.60546875 1.7265625 1.60546875 3 3 C3.33 1.35 3.66 -0.3 4 -2 C6.31 -2 8.62 -2 11 -2 C11.06966439 5.32818856 11.12289432 12.65630512 11.15543652 19.98475838 C11.17105917 23.38807031 11.19223435 26.79115485 11.22631836 30.19433594 C11.26530034 34.11129997 11.2797374 38.02817351 11.29296875 41.9453125 C11.31619453 43.76906906 11.31619453 43.76906906 11.33988953 45.62966919 C11.34125441 52.50086684 11.08377465 57.42770659 6.421875 62.828125 C0.32691701 68.0116874 -5.49361423 69.45993523 -13.44140625 69.2421875 C-18.40611707 68.77224541 -22.99030544 67.94395688 -26.671875 64.3828125 C-29.31401595 60.92427968 -30 59.52248697 -30 55 C-26.75 54.625 -26.75 54.625 -23 55 C-22.46375 55.99 -21.9275 56.98 -21.375 58 C-19.32170906 61.27906961 -19.32170906 61.27906961 -16.078125 61.50390625 C-7.49949949 61.67488862 -7.49949949 61.67488862 0 58 C3.67924448 52.97169921 3.31820022 47.9633079 3 42 C1.6078125 43.2065625 1.6078125 43.2065625 0.1875 44.4375 C-4.67033527 48.6476239 -9.62687151 48.33637225 -15.828125 48.28125 C-21.13461253 47.81072401 -23.56767274 45.43232726 -27.1875 41.8125 C-32.93681907 32.89114283 -33.55089999 22.34482824 -31.37890625 12.05859375 C-29.22168895 5.77869451 -25.48538253 1.68320347 -20 -2 C-12.91633174 -4.36122275 -6.62865515 -3.08575326 0 0 Z " fill="#080404" transform="translate(338,200)"/>
<path d="M0 0 C3.4375 1.8125 3.4375 1.8125 6 4 C6.78375 4.5775 7.5675 5.155 8.375 5.75 C8.91125 6.1625 9.4475 6.575 10 7 C10 5.35 10 3.7 10 2 C12.31 2 14.62 2 17 2 C17.1017053 9.68624527 17.17159403 17.37231595 17.21972656 25.05908203 C17.23979933 27.67210373 17.26706358 30.28508075 17.30175781 32.89794922 C17.35046435 36.66124522 17.37301311 40.42394549 17.390625 44.1875 C17.41127014 45.34926758 17.43191528 46.51103516 17.45318604 47.70800781 C17.45521355 55.0935692 16.67184471 60.85086059 11.6585083 66.51586914 C6.03904176 71.70794751 -0.27747274 72.32345154 -7.578125 72.11328125 C-8.37734375 72.07589844 -9.1765625 72.03851563 -10 72 C-11.2375 71.95875 -12.475 71.9175 -13.75 71.875 C-18.08217413 70.70864543 -20.54435656 68.74983389 -23 65 C-23.875 61.125 -23.875 61.125 -24 58 C-20.75 57.625 -20.75 57.625 -17 58 C-14.6875 60.9375 -14.6875 60.9375 -13 64 C-10.32344199 65.33827901 -8.17565948 65.20578556 -5.1875 65.25 C-4.14980469 65.27578125 -3.11210937 65.3015625 -2.04296875 65.328125 C1.42548969 64.95411921 3.22963173 64.08873108 6 62 C9.12842024 56.52526459 9.63645823 51.2303538 10 45 C9.54109375 45.33773437 9.0821875 45.67546875 8.609375 46.0234375 C7.99578125 46.46945312 7.3821875 46.91546875 6.75 47.375 C6.14671875 47.81585938 5.5434375 48.25671875 4.921875 48.7109375 C-0.42269617 52.29571085 -4.65523626 52.49600759 -11 52 C-15.68611279 50.75036992 -19.55117295 48.31133947 -22.16796875 44.13671875 C-26.76304984 35.32809761 -27.66276403 24.80116144 -24.9375 15.1875 C-22.64908917 9.2983669 -18.39540577 5.12924957 -13.75 1 C-9.21019557 -0.65083797 -4.76219352 -0.64429677 0 0 Z " fill="#070604" transform="translate(331,331)"/>
<path d="M0 0 C6.06129727 2.96369763 9.75086913 5.99469502 12.96484375 11.984375 C15.3712055 19.12048225 15.23435721 30.07377805 12.40234375 36.984375 C9.62137417 42.1222656 5.93596713 47.40114662 0.70703125 50.1875 C-2.76307443 51.19590678 -5.86072293 51.28596281 -9.47265625 51.296875 C-10.75011719 51.31363281 -12.02757812 51.33039062 -13.34375 51.34765625 C-18.43740434 50.84637598 -21.68182843 49.047704 -25.66015625 45.921875 C-32.4211496 37.55959376 -33.10943813 28.46139209 -32.03515625 17.984375 C-30.62806299 11.1737106 -28.38442115 6.37006198 -22.81640625 2.10546875 C-15.90630795 -2.24365014 -7.78069557 -2.60357896 0 0 Z " fill="#060906" transform="translate(340.03515625,484.015625)"/>
<path d="M0 0 C0.56589844 0.4125 1.13179687 0.825 1.71484375 1.25 C2.29105469 1.6625 2.86726563 2.075 3.4609375 2.5 C7.38653453 5.81369342 8.78253218 9.16706049 9.5390625 14.1953125 C10.02451243 22.63135355 9.7270724 31.29969161 6.71484375 39.25 C6.05484375 39.25 5.39484375 39.25 4.71484375 39.25 C4.50859375 39.9925 4.30234375 40.735 4.08984375 41.5 C2.29800209 45.08368332 0.15373057 46.28492182 -3.28515625 48.25 C-6.92070206 49.4618486 -10.30923377 49.5109802 -14.09765625 49.5625 C-15.14663086 49.60600586 -15.14663086 49.60600586 -16.21679688 49.65039062 C-22.69274078 49.72914392 -26.06209019 47.11117159 -30.97265625 43 C-36.03182701 36.98368882 -36.84604004 30.40090296 -36.78515625 22.8125 C-36.77871094 21.97501221 -36.77226562 21.13752441 -36.765625 20.2746582 C-36.57774074 13.94283503 -35.76637498 9.01062325 -31.28515625 4.25 C-22.87101469 -3.53099823 -10.33719779 -6.29410774 0 0 Z " fill="#060906" transform="translate(209.28515625,485.75)"/>
<path d="M0 0 C1.20269531 -0.01417969 2.40539062 -0.02835938 3.64453125 -0.04296875 C10.48645139 0.40209552 14.32093954 2.66046701 19.1875 7.1875 C20.79701543 10.40653085 20.42984748 13.93588832 20.50390625 17.4765625 C20.52468735 18.29498627 20.54546844 19.11341003 20.56687927 19.95663452 C20.63234812 22.57516966 20.69124726 25.19380639 20.75 27.8125 C20.79318776 29.58594807 20.83680214 31.35938581 20.88085938 33.1328125 C20.98802676 37.48427046 21.08930169 41.83583077 21.1875 46.1875 C22.8375 46.1875 24.4875 46.1875 26.1875 46.1875 C26.1875 48.1675 26.1875 50.1475 26.1875 52.1875 C17.55247244 52.6265692 17.55247244 52.6265692 13.1875 49.1875 C12.8575 48.5275 12.5275 47.8675 12.1875 47.1875 C9.48505659 48.22078719 7.12239725 49.22981679 4.6875 50.8125 C-0.65685908 52.91206964 -6.14030722 52.91160972 -11.8125 52.1875 C-15.87970281 50.11933313 -18.5864412 48.22738449 -20.8125 44.1875 C-21.640002 39.21541531 -21.97021616 34.42077182 -19.6015625 29.8515625 C-18.08791999 27.9691137 -16.83805876 26.50690066 -14.8125 25.1875 C-13.4925 25.1875 -12.1725 25.1875 -10.8125 25.1875 C-10.8125 24.5275 -10.8125 23.8675 -10.8125 23.1875 C-10.18158447 23.10185791 -9.55066895 23.01621582 -8.90063477 22.92797852 C-6.05814319 22.53966286 -3.21658131 22.14491919 -0.375 21.75 C0.61822266 21.61529297 1.61144531 21.48058594 2.63476562 21.34179688 C3.57900391 21.20966797 4.52324219 21.07753906 5.49609375 20.94140625 C6.37064209 20.82095947 7.24519043 20.7005127 8.14624023 20.57641602 C10.17414505 20.38827798 10.17414505 20.38827798 11.1875 19.1875 C11.70056187 15.11917569 11.70056187 15.11917569 11.1875 11.1875 C7.58931406 8.2774917 4.67980568 7.77795027 0.125 7.8125 C-1.40833984 7.80089844 -1.40833984 7.80089844 -2.97265625 7.7890625 C-6.15953372 8.23618974 -7.5324702 8.94998823 -9.8125 11.1875 C-10.6167208 13.78605733 -10.6167208 13.78605733 -10.8125 16.1875 C-13.4525 16.1875 -16.0925 16.1875 -18.8125 16.1875 C-18.8125 9.3668722 -18.8125 9.3668722 -16.0703125 6.1328125 C-10.7007801 1.39267584 -7.236541 0.03853323 0 0 Z " fill="#07080B" transform="translate(377.8125,615.8125)"/>
<path d="M0 0 C3.70954801 2.01747348 6.26933474 4.77622825 8.53125 8.28125 C9.11990443 11.14220559 9.13605546 13.94920849 9.140625 16.86328125 C9.15716125 17.67746017 9.17369751 18.4916391 9.19073486 19.33049011 C9.23912788 21.9183208 9.26056568 24.50556426 9.28125 27.09375 C9.30941708 28.85354503 9.33934555 30.61331281 9.37109375 32.37304688 C9.44488409 36.67573288 9.4945115 40.97809457 9.53125 45.28125 C11.18125 45.28125 12.83125 45.28125 14.53125 45.28125 C14.53125 47.26125 14.53125 49.24125 14.53125 51.28125 C5.89622244 51.7203192 5.89622244 51.7203192 1.53125 48.28125 C1.20125 47.62125 0.87125 46.96125 0.53125 46.28125 C-2.17119341 47.31453719 -4.53385275 48.32356679 -6.96875 49.90625 C-12.40631762 52.04243728 -17.70355736 51.94138656 -23.46875 51.28125 C-27.9482223 49.19597841 -30.69123707 46.92253375 -32.46875 42.28125 C-33.17248485 37.69631083 -33.49535758 33.3645489 -31.40234375 29.1171875 C-26.9817468 23.45593255 -20.98178119 21.48307113 -14.00390625 20.5859375 C-12.51407483 20.43213163 -11.02311232 20.28891779 -9.53125 20.15625 C-4.6033604 20.11056729 -4.6033604 20.11056729 -0.46875 18.28125 C-0.05555634 14.23323727 -0.05555634 14.23323727 -0.46875 10.28125 C-2.76872871 7.80863366 -4.1992257 7.31596146 -7.5625 6.8828125 C-9.24859375 6.89441406 -9.24859375 6.89441406 -10.96875 6.90625 C-12.0928125 6.89851563 -13.216875 6.89078125 -14.375 6.8828125 C-17.7225627 7.313938 -19.10652245 7.9133981 -21.46875 10.28125 C-22.2729708 12.87980733 -22.2729708 12.87980733 -22.46875 15.28125 C-25.10875 15.28125 -27.74875 15.28125 -30.46875 15.28125 C-30.46875 8.4606222 -30.46875 8.4606222 -27.7265625 5.2265625 C-20.11347005 -1.49415281 -9.84246201 -2.86552691 0 0 Z " fill="#0A0906" transform="translate(392.46875,331.71875)"/>
<path d="M0 0 C2.28989232 1.9376012 3.66890582 3.33781163 5 6 C5.08675538 8.69893181 5.11557897 11.37169231 5.09765625 14.0703125 C5.0962413 14.86654022 5.09482635 15.66276794 5.09336853 16.48312378 C5.08776345 19.0304538 5.07521014 21.57769647 5.0625 24.125 C5.05748565 25.85025915 5.05292263 27.57551967 5.04882812 29.30078125 C5.03779237 33.53388791 5.02052436 37.76692914 5 42 C6.98 42 8.96 42 11 42 C11.04254356 43.99954746 11.04080783 46.00041636 11 48 C10 49 10 49 6.125 49.25 C2.29830976 49.2020808 2.29830976 49.2020808 0.0625 47.6875 C-1 46 -1 46 -2 43 C-3.99989484 43.99101932 -5.98355678 44.99091645 -7.9375 46.0703125 C-14.21124453 49.27847732 -20.01777346 49.98467297 -27 49 C-31.61750026 46.81276304 -33.72568616 44.50352797 -36 40 C-36.86696143 34.56704173 -37.10163222 29.65244833 -34 25 C-33.01 24.34 -32.02 23.68 -31 23 C-29.9275 22.278125 -28.855 21.55625 -27.75 20.8125 C-22.74897783 18.40853375 -17.27586514 18.137128 -11.81542969 17.68286133 C-7.44781427 17.45032254 -7.44781427 17.45032254 -4 15 C-3.52786327 10.93904042 -3.52786327 10.93904042 -4 7 C-6.29930733 4.54518396 -7.74822636 4.03528646 -11.09375 3.56640625 C-12.2178125 3.56511719 -13.341875 3.56382812 -14.5 3.5625 C-15.6240625 3.54316406 -16.748125 3.52382812 -17.90625 3.50390625 C-21.60803489 4.09750054 -22.75033458 5.05936592 -25 8 C-25.79681318 10.64184541 -25.79681318 10.64184541 -26 13 C-28.64 13 -31.28 13 -34 13 C-34.50130606 7.73628638 -33.31168629 5.0909066 -30 1 C-29.34 1 -28.68 1 -28 1 C-28 0.34 -28 -0.32 -28 -1 C-18.89577717 -4.3876178 -8.7011425 -4.42967255 0 0 Z " fill="#0B0606" transform="translate(397,200)"/>
<path d="M0 0 C3.44162203 3.30395715 2.77984338 8.0030299 2.87890625 12.44921875 C2.89968735 13.22183548 2.92046844 13.99445221 2.94187927 14.79048157 C3.00721038 17.2560648 3.06618315 19.72175361 3.125 22.1875 C3.16820087 23.86003691 3.21181566 25.53256319 3.25585938 27.20507812 C3.3628749 31.3032775 3.46418857 35.40158296 3.5625 39.5 C5.2125 40.16 6.8625 40.82 8.5625 41.5 C8.605221 43.16611905 8.60313832 44.83382885 8.5625 46.5 C7.5625 47.5 7.5625 47.5 3.75 47.875 C0.21391909 47.84960624 -0.21434121 47.71200085 -2.9375 45.125 C-4.4375 42.5 -4.4375 42.5 -4.4375 40.5 C-5.35982422 41.13228516 -5.35982422 41.13228516 -6.30078125 41.77734375 C-7.10902344 42.32519531 -7.91726563 42.87304688 -8.75 43.4375 C-9.55050781 43.98277344 -10.35101562 44.52804687 -11.17578125 45.08984375 C-15.07625773 47.52174705 -18.29976437 47.68804024 -22.8125 47.75 C-23.93398438 47.77578125 -25.05546875 47.8015625 -26.2109375 47.828125 C-29.81068224 47.46204926 -31.58790906 46.6958319 -34.4375 44.5 C-37.90012138 39.93608644 -39.17569433 35.19464196 -38.4375 29.5 C-36.69365027 24.81914021 -34.61775185 22.22202446 -30.4375 19.5 C-24.83820948 17.26362167 -19.30472766 16.82828621 -13.36328125 16.2890625 C-8.93910633 15.98131843 -8.93910633 15.98131843 -5.4375 13.5 C-5.02083333 10 -5.02083333 10 -5.4375 6.5 C-6.4275 5.84 -7.4175 5.18 -8.4375 4.5 C-8.4375 3.84 -8.4375 3.18 -8.4375 2.5 C-10.8553712 2.39173711 -13.26837556 2.31260211 -15.6875 2.25 C-16.36941406 2.21648437 -17.05132813 2.18296875 -17.75390625 2.1484375 C-21.24598309 2.08063018 -23.06893626 2.21648943 -25.875 4.375 C-27.42874532 6.48809364 -28.06950847 7.9240593 -28.4375 10.5 C-30.7475 10.5 -33.0575 10.5 -35.4375 10.5 C-35.94111366 6.26964527 -35.64679985 4.79415114 -33.125 1.25 C-24.39531167 -7.68270434 -10.04435376 -6.18114077 0 0 Z " fill="#050805" transform="translate(605.4375,487.5)"/>
<path d="M0 0 C1.85332743 1.47176002 3.5380099 2.93345831 5.125 4.6875 C7.34154627 3.65838923 9.23369177 2.60515775 11.1875 1.125 C15.61920297 -2.16303769 20.84955625 -1.8728658 26.125 -1.3125 C30.29834283 -0.02720332 32.67104265 1.85649242 34.7980957 5.75024414 C36.55780005 10.18262217 36.50496539 14.40813923 36.41796875 19.12109375 C36.41372391 19.99903091 36.40947906 20.87696808 36.40510559 21.7815094 C36.3884229 24.5629958 36.35079085 27.34373564 36.3125 30.125 C36.29743968 32.02017177 36.28375364 33.91535498 36.27148438 35.81054688 C36.2385536 40.43648197 36.18684428 45.06186477 36.125 49.6875 C33.485 49.6875 30.845 49.6875 28.125 49.6875 C28.11041748 48.45596191 28.09583496 47.22442383 28.08081055 45.95556641 C28.02294348 41.39683642 27.94571068 36.83860643 27.86254883 32.28027344 C27.82924472 30.30542094 27.80123003 28.330472 27.77856445 26.35546875 C27.74511878 23.52041423 27.69280954 20.686248 27.63671875 17.8515625 C27.63032883 16.96506012 27.6239389 16.07855774 27.61735535 15.16519165 C27.59756119 14.34449188 27.57776703 13.52379211 27.55737305 12.67822266 C27.54071846 11.5923436 27.54071846 11.5923436 27.52372742 10.48452759 C27.25009493 8.27101797 27.25009493 8.27101797 24.125 6.6875 C20.73392629 6.14147966 17.51625824 6.14122076 14.125 6.6875 C11.30075712 8.87772918 9.70991397 10.51767207 8.125 13.6875 C7.96823225 16.38405446 7.86663685 19.05879977 7.80859375 21.7578125 C7.78781265 22.55404022 7.76703156 23.35026794 7.74562073 24.17062378 C7.68015851 26.71782685 7.62125585 29.26513425 7.5625 31.8125 C7.5193116 33.53777127 7.47569721 35.26303193 7.43164062 36.98828125 C7.32448055 41.22124685 7.22320377 45.45431753 7.125 49.6875 C4.485 49.6875 1.845 49.6875 -0.875 49.6875 C-0.87910889 48.5322583 -0.88321777 47.3770166 -0.88745117 46.18676758 C-0.90926324 41.89058131 -0.96357402 37.59530821 -1.02758789 33.29956055 C-1.05074988 31.44222787 -1.0651594 29.58476418 -1.07055664 27.72729492 C-1.07985962 25.053045 -1.12087697 22.38085032 -1.16796875 19.70703125 C-1.1640361 18.87976028 -1.16010345 18.05248932 -1.15605164 17.20014954 C-1.26528368 12.86029671 -1.48933014 11.17387646 -4.27880859 7.65600586 C-7.02356814 5.57485143 -7.95666797 5.03073248 -11.3125 5.4375 C-12.03308594 5.49421875 -12.75367188 5.5509375 -13.49609375 5.609375 C-17.3029802 7.33466344 -19.64838335 10.19023751 -21.875 13.6875 C-22.68083236 16.56275019 -22.71568001 19.27244647 -22.6796875 22.24609375 C-22.70024704 23.42982323 -22.70024704 23.42982323 -22.72122192 24.63746643 C-22.75832213 27.13390153 -22.75482122 29.62832988 -22.75 32.125 C-22.76814105 33.82750478 -22.78894816 35.52998335 -22.8125 37.23242188 C-22.86416259 41.38444782 -22.87944405 45.53517043 -22.875 49.6875 C-25.515 49.6875 -28.155 49.6875 -30.875 49.6875 C-30.875 33.1875 -30.875 16.6875 -30.875 -0.3125 C-28.235 -0.3125 -25.595 -0.3125 -22.875 -0.3125 C-22.875 1.6675 -22.875 3.6475 -22.875 5.6875 C-22.33230469 5.26597656 -21.78960937 4.84445312 -21.23046875 4.41015625 C-20.51503906 3.86230469 -19.79960937 3.31445312 -19.0625 2.75 C-18.35480469 2.20472656 -17.64710938 1.65945313 -16.91796875 1.09765625 C-11.9517375 -2.33027775 -5.39564801 -2.46323062 0 0 Z " fill="#050705" transform="translate(260.875,484.3125)"/>
<path d="M0 0 C4.98842152 3.59582051 6.72183706 6.20136017 7.875 12.3515625 C7.875 16.3115625 7.875 20.2715625 7.875 24.3515625 C-4.005 24.3515625 -15.885 24.3515625 -28.125 24.3515625 C-26.90677407 33.19068724 -26.90677407 33.19068724 -22.296875 40.0703125 C-18.40090592 42.36865397 -14.49547317 42.05162332 -10.125 41.3515625 C-5.79145952 39.60810168 -2.84062675 37.69336266 -0.625 33.5390625 C-0.3775 32.45625 -0.3775 32.45625 -0.125 31.3515625 C2.515 31.3515625 5.155 31.3515625 7.875 31.3515625 C7.545 33.3315625 7.215 35.3115625 6.875 37.3515625 C6.215 37.3515625 5.555 37.3515625 4.875 37.3515625 C4.648125 38.0940625 4.42125 38.8365625 4.1875 39.6015625 C2.2824169 43.59316519 -0.41077079 45.50959126 -4.3359375 47.4375 C-10.5267241 49.46641326 -18.52749024 49.55431203 -24.7421875 47.4765625 C-31.42639926 43.64259953 -34.05245356 37.57460733 -36.125 30.3515625 C-36.9944925 20.82102129 -36.42256064 11.76898355 -31.375 3.4765625 C-22.57456055 -4.83496365 -10.29018847 -6.57837049 0 0 Z " fill="#050705" transform="translate(447.125,486.6484375)"/>
<path d="M0 0 C2.64 0 5.28 0 8 0 C8.33 7.92 8.66 15.84 9 24 C12.465 21.525 12.465 21.525 16 19 C21.11908345 17.29363885 27.00108109 17.00755202 32.171875 18.71875 C36.0228673 20.75944678 38.22626298 23.05836217 40 27 C41.24167243 31.21047082 41.12538186 35.34893285 41.09765625 39.703125 C41.0962413 40.54091492 41.09482635 41.37870483 41.09336853 42.24188232 C41.08778197 44.91129157 41.07523194 47.5806162 41.0625 50.25 C41.05748326 52.06249879 41.05292066 53.87499889 41.04882812 55.6875 C41.03781694 60.12503248 41.02056155 64.56250191 41 69 C38.36 69 35.72 69 33 69 C33 56.13 33 43.26 33 30 C32.34 30 31.68 30 31 30 C30.62875 29.34 30.2575 28.68 29.875 28 C28.02504791 25.58722943 28.02504791 25.58722943 24.25 25.625 C20.20288845 25.87794447 16.72435857 26.28106527 13 28 C7.64107835 35.53355652 8.33107423 44.12897108 8.25 53 C8.22180317 54.55341819 8.19187062 56.10680589 8.16015625 57.66015625 C8.08672928 61.44004909 8.03688834 65.21958122 8 69 C5.36 69 2.72 69 0 69 C0 46.23 0 23.46 0 0 Z " fill="#050805" transform="translate(122,465)"/>
<path d="M0 0 C4.66382213 2.91488883 7.48053766 5.71723335 8.8125 11.25 C8.874375 12.11625 8.93625 12.9825 9 13.875 C6.36 13.875 3.72 13.875 1 13.875 C0.54625 12.905625 0.0925 11.93625 -0.375 10.9375 C-1.65786221 7.80420418 -1.65786221 7.80420418 -4 6.875 C-4 6.215 -4 5.555 -4 4.875 C-8.95 5.205 -13.9 5.535 -19 5.875 C-19.33 8.845 -19.66 11.815 -20 14.875 C-14.54030648 19.01351768 -9.23701564 20.34413916 -2.6328125 21.85351562 C2.76389976 23.20269369 6.17913401 24.74677728 10 28.875 C11.32551535 33.70671726 10.70948185 39.18017441 8.625 43.75 C5.57248448 48.17934945 1.02984524 50.32682602 -4 51.875 C-10.92837975 52.79937087 -16.94777631 52.45692831 -23 48.875 C-26.83155576 45.65300993 -29.12302979 42.51803157 -31 37.875 C-31 36.555 -31 35.235 -31 33.875 C-28.03 33.875 -25.06 33.875 -22 33.875 C-21.731875 34.968125 -21.46375 36.06125 -21.1875 37.1875 C-19.97147427 41.27352873 -19.97147427 41.27352873 -17 43.875 C-13.70930824 44.35314999 -13.70930824 44.35314999 -10.0625 44.25 C-8.83660156 44.25773438 -7.61070312 44.26546875 -6.34765625 44.2734375 C-2.8388103 43.85581523 -1.35921347 43.48008683 1 40.875 C1.48057715 38.8261352 1.48057715 38.8261352 1.25 36.6875 C1.1675 35.429375 1.085 34.17125 1 32.875 C-4.71804023 30.1521237 -10.57551896 28.54444797 -16.6953125 26.9375 C-22.12504477 25.19177048 -26.07444309 22.85928214 -29 17.875 C-29.84258477 13.2705721 -29.42988937 9.82433903 -27.5 5.5625 C-20.4324765 -2.03508776 -9.75784076 -3.56577551 0 0 Z " fill="#090D09" transform="translate(392,484.125)"/>
<path d="M0 0 C0.7734375 -0.00257813 1.546875 -0.00515625 2.34375 -0.0078125 C5.18732478 0.16733522 7.00389596 0.64370503 9.0703125 2.6484375 C9.83988281 3.56496094 9.83988281 3.56496094 10.625 4.5 C11.40230469 5.40878906 11.40230469 5.40878906 12.1953125 6.3359375 C16.14795902 11.75603362 15.11223657 20.67209169 14.5 27.125 C13.37795056 31.72906156 12.08310328 34.93077749 8.2578125 37.81640625 C3.18549864 40.22324073 -2.03739998 40.07889624 -7.5 39.125 C-11.57453026 36.56710045 -13.10256704 33.10051726 -14.875 28.75 C-16.33521995 20.28072427 -15.76117501 12.81878821 -11.5 5.125 C-9.359375 3.80859375 -9.359375 3.80859375 -7.5 3.125 C-7.5 2.465 -7.5 1.805 -7.5 1.125 C-4.68772378 0.18757459 -2.91253156 -0.00970844 0 0 Z " fill="#A9F6AC" transform="translate(330.5,488.875)"/>
<path d="M0 0 C4.97705606 2.98126486 8.31784911 6.39010845 10 12 C10.85608655 20.24232168 10.66837275 27.92718109 6 35 C3.52864906 37.8577077 1.54672857 38.88727232 -2.3046875 39.16796875 C-11.68975431 39.23928385 -11.68975431 39.23928385 -15 37 C-20.27733724 29.87379972 -20.58964678 22.65556966 -20 14 C-19.0001115 8.47768001 -16.55584777 4.50519038 -12.0859375 1.08203125 C-8.05187379 -1.01054487 -4.36130721 -1.14305712 0 0 Z " fill="#AAF7AD" transform="translate(201,489)"/>
<path d="M0 0 C2.97 0 5.94 0 9 0 C10.71473619 5.07010096 12.42357347 10.14213679 14.12695312 15.21606445 C14.70736206 16.94219674 15.28938474 18.66778728 15.87304688 20.39282227 C16.71127461 22.87115377 17.54369672 25.35136985 18.375 27.83203125 C18.63748535 28.60400345 18.8999707 29.37597565 19.17041016 30.17134094 C20.1894816 33.22759412 21 35.75552755 21 39 C23.98301325 37.50849338 24.18115008 35.09790565 25.20864868 32.09300232 C25.48268524 31.26695999 25.7567218 30.44091766 26.0390625 29.58984375 C26.32478119 28.74780899 26.61049988 27.90577423 26.90487671 27.03822327 C27.81855512 24.34027899 28.72186668 21.63899034 29.625 18.9375 C30.24150937 17.11109908 30.85868825 15.28492401 31.4765625 13.45898438 C32.99216486 8.97524294 34.49847685 4.48847493 36 0 C38.64 0 41.28 0 44 0 C43.08430734 4.73107876 42.05801001 9.10512613 40.19921875 13.5546875 C37.81571079 19.39390333 35.6835027 25.3112833 33.5625 31.25 C33.16635498 32.35029541 32.77020996 33.45059082 32.36206055 34.58422852 C30.7119369 39.17377242 29.06562251 43.76226343 27.515625 48.38671875 C21.72576567 65.47432306 21.72576567 65.47432306 16.14453125 69.2578125 C13.56349827 70.15106617 11.47512675 70.19671386 8.75 70.125 C7.85796875 70.10695313 6.9659375 70.08890625 6.046875 70.0703125 C5.37140625 70.04710937 4.6959375 70.02390625 4 70 C4 67.69 4 65.38 4 63 C4.68707031 62.93683594 5.37414062 62.87367188 6.08203125 62.80859375 C8.87143675 62.42949 11.35059979 61.95838432 14 61 C17.03799012 56.66001411 17.2079818 53.44471332 16.47268677 48.30001831 C15.5599225 43.85865318 13.96107703 39.65888181 12.40234375 35.41015625 C12.04862198 34.42502548 11.69490021 33.43989471 11.33045959 32.4249115 C10.20721958 29.3012494 9.07277766 26.1818048 7.9375 23.0625 C6.8010023 19.91739797 5.66680222 16.77147996 4.53382874 13.62510681 C3.82971415 11.67216551 3.12310057 9.72012311 2.4138031 7.76905823 C1.93814659 6.45650307 1.93814659 6.45650307 1.45288086 5.11743164 C1.17165878 4.34436172 0.89043671 3.57129181 0.60069275 2.77479553 C0 1 0 1 0 0 Z " fill="#050303" transform="translate(412,198)"/>
<path d="M0 0 C2.97 0 5.94 0 9 0 C10.7146092 5.21260957 12.42345129 10.42706046 14.12695312 15.64331055 C14.7073976 17.41791888 15.28942062 19.1920117 15.87304688 20.96557617 C16.71118066 23.51347436 17.54363866 26.06316647 18.375 28.61328125 C18.63748535 29.40712723 18.8999707 30.20097321 19.17041016 31.01887512 C20.17573524 34.11767929 21 36.72027089 21 40 C23.45615371 39.0528837 23.45615371 39.0528837 24.42041016 35.30639648 C24.96766353 33.66384183 25.50663555 32.01851404 26.0390625 30.37109375 C26.32478119 29.50686295 26.61049988 28.64263214 26.90487671 27.75221252 C27.81862759 24.98290243 28.7219043 22.21030099 29.625 19.4375 C30.24150227 17.56292555 30.85868104 15.68857343 31.4765625 13.81445312 C32.99224596 9.21218162 34.49854244 4.60693125 36 0 C38.64 0 41.28 0 44 0 C43.30118775 3.81876191 42.3223194 7.47560068 41.1875 11.1875 C40.71376953 12.75564453 40.71376953 12.75564453 40.23046875 14.35546875 C38.98276682 18.05104303 37.56519146 21.63687116 36.09936523 25.24975586 C33.70660134 31.23565089 31.50918516 37.29806506 29.26757812 43.34179688 C20.13777261 67.83829378 20.13777261 67.83829378 15 71 C11.30900071 71.32049198 7.69438432 71.22930661 4 71 C4 68.69 4 66.38 4 64 C5.98567708 63.77213542 7.97135417 63.54427083 9.95703125 63.31640625 C12.19396393 63.02829265 12.19396393 63.02829265 15 62 C15.36321485 60.33958925 15.68676972 58.67056149 16 57 C16.37692993 55.2672583 16.37692993 55.2672583 16.76147461 53.49951172 C17.43809286 47.86105306 15.37616376 43.20207447 13.37890625 38.0078125 C13.00015854 36.98066132 12.62141083 35.95351013 12.23118591 34.89523315 C11.02447082 31.63219905 9.79439269 28.37860211 8.5625 25.125 C7.33914333 21.84831464 6.1206101 18.56988756 4.90452576 15.29049683 C4.14751044 13.25411388 3.38532901 11.2196427 2.61756897 9.18728638 C2.27398849 8.27228363 1.93040802 7.35728088 1.57641602 6.41455078 C1.27139664 5.60817169 0.96637726 4.8017926 0.65211487 3.97097778 C0 2 0 2 0 0 Z " fill="#030304" transform="translate(408,617)"/>
<path d="M0 0 C3.54187908 -0.71853695 6.48109259 -0.91101159 10 0 C13.35361412 3.25843642 15.65038783 6.97907016 18 11 C18.56847656 11.94488281 19.13695312 12.88976562 19.72265625 13.86328125 C20.14417969 14.56839844 20.56570313 15.27351563 21 16 C23.1195246 13.44629965 25.04236336 10.93146015 26.7890625 8.10546875 C31.67231471 0.3442147 31.67231471 0.3442147 35.7421875 -0.7109375 C38.2506662 -0.68961898 40.54407349 -0.49823099 43 0 C38.80424088 6.77877333 34.43126882 13.19763304 29.40625 19.39453125 C27.77352684 21.9310895 27.77352684 21.9310895 27.984375 24.89453125 C29.24948289 28.7628419 31.30501679 31.68325584 33.75 34.875 C34.66060357 36.10287122 35.56947168 37.33203146 36.4765625 38.5625 C36.91258789 39.1503125 37.34861328 39.738125 37.79785156 40.34375 C40.05341683 43.45133627 42.02571254 46.70952091 44 50 C39.94992547 51.19857138 37.01204508 51.42442387 33 50 C28.33947877 45.14185447 25.15700639 38.89873862 22 33 C18.54514054 34.15161982 18.44016872 34.52465178 16.87109375 37.59765625 C10.42391522 49.47641652 10.42391522 49.47641652 6.12109375 51.05859375 C3.57256978 51.00421557 1.43315246 50.7454765 -1 50 C0.90636718 43.99494339 4.98144108 39.2564755 8.65625 34.23828125 C12.70101511 29.02412529 12.70101511 29.02412529 15 23 C13.73140189 20.32520223 13.73140189 20.32520223 11.5625 17.8125 C10.45068359 16.38550781 10.45068359 16.38550781 9.31640625 14.9296875 C8.55199219 13.96289062 7.78757812 12.99609375 7 12 C5.65151691 10.15682199 4.31691905 8.30336067 3 6.4375 C2.4225 5.63183594 1.845 4.82617188 1.25 3.99609375 C0 2 0 2 0 0 Z " fill="#050805" transform="translate(463,484)"/>
<path d="M0 0 C2.97 0 5.94 0 9 0 C10.7146092 5.21260957 12.42345129 10.42706046 14.12695312 15.64331055 C14.7073976 17.41791888 15.28942062 19.1920117 15.87304688 20.96557617 C16.71118066 23.51347436 17.54363866 26.06316647 18.375 28.61328125 C18.63748535 29.40712723 18.8999707 30.20097321 19.17041016 31.01887512 C20.17573524 34.11767929 21 36.72027089 21 40 C23.45615371 39.0528837 23.45615371 39.0528837 24.42041016 35.30639648 C24.96766353 33.66384183 25.50663555 32.01851404 26.0390625 30.37109375 C26.32478119 29.50686295 26.61049988 28.64263214 26.90487671 27.75221252 C27.81862759 24.98290243 28.7219043 22.21030099 29.625 19.4375 C30.24150227 17.56292555 30.85868104 15.68857343 31.4765625 13.81445312 C32.99224596 9.21218162 34.49854244 4.60693125 36 0 C38.64 0 41.28 0 44 0 C40.54308147 14.05813536 35.91133922 28.05086751 30.109375 41.3125 C28.92139276 44.19042881 27.98752611 47.09028496 27.0625 50.0625 C24.93585863 56.63261156 21.87584488 65.8491738 16 70 C13.08203125 70.29296875 13.08203125 70.29296875 9.8125 70.1875 C8.72582031 70.16042969 7.63914062 70.13335937 6.51953125 70.10546875 C5.27236328 70.05326172 5.27236328 70.05326172 4 70 C4 68.02 4 66.04 4 64 C5.98567708 63.77213542 7.97135417 63.54427083 9.95703125 63.31640625 C12.19396393 63.02829265 12.19396393 63.02829265 15 62 C15.36321485 60.33958925 15.68676972 58.67056149 16 57 C16.24081299 55.81865479 16.48162598 54.63730957 16.72973633 53.42016602 C17.35656618 48.20786614 15.72912422 44.09726304 13.88671875 39.27734375 C13.55710648 38.37303116 13.2274942 37.46871857 12.88789368 36.53700256 C11.83716515 33.66428171 10.76319424 30.80095418 9.6875 27.9375 C8.62773087 25.06876885 7.57279036 22.19830642 6.51924133 19.32728577 C5.86397326 17.54692035 5.20420785 15.76820153 4.53923035 13.99143982 C2.81679167 9.36711894 1.28240986 4.76581532 0 0 Z " fill="#020201" transform="translate(411,332)"/>
<path d="M0 0 C2.64 0 5.28 0 8 0 C8.01458252 1.13018555 8.02916504 2.26037109 8.04418945 3.42480469 C8.10220685 7.62206499 8.17943937 11.81879073 8.26245117 16.015625 C8.29568436 17.83129189 8.32372134 19.64706168 8.34643555 21.46289062 C8.38001141 24.07466442 8.43232762 26.68549654 8.48828125 29.296875 C8.49467117 30.10743347 8.5010611 30.91799194 8.50764465 31.75311279 C8.59354933 35.05354803 8.75645373 37.55049859 10.34448242 40.48144531 C13.41930644 43.30188558 16.89662284 43.354762 20.9375 43.265625 C24.57154299 42.79760431 26.37173567 41.50601947 29 39 C33.02647377 31.4745381 32.55124389 22.73343858 32.6875 14.4375 C32.72073948 13.0331726 32.75523505 11.62887433 32.79101562 10.22460938 C32.87299795 6.81648692 32.94231345 3.40860575 33 0 C35.31 0 37.62 0 40 0 C40 16.5 40 33 40 50 C37.69 50 35.38 50 33 50 C33 47.69 33 45.38 33 43 C32.34 43 31.68 43 31 43 C30.74089844 43.61359375 30.48179687 44.2271875 30.21484375 44.859375 C28.12447152 48.54273185 24.93832369 49.75297021 21 51 C15.56962689 51.76808672 11.41359846 51.73204206 6.5 49.1875 C5.675 48.465625 4.85 47.74375 4 47 C3.401875 46.484375 2.80375 45.96875 2.1875 45.4375 C0.00097767 42.79065718 -0.12361712 40.17556556 -0.11352539 36.89575195 C-0.11344986 36.07512772 -0.11337433 35.25450348 -0.11329651 34.40901184 C-0.10813522 33.52767075 -0.10297394 32.64632965 -0.09765625 31.73828125 C-0.0962413 30.83248825 -0.09482635 29.92669525 -0.09336853 28.99345398 C-0.08777001 26.09976909 -0.07521781 23.20616151 -0.0625 20.3125 C-0.05748481 18.35091258 -0.05292193 16.38932394 -0.04882812 14.42773438 C-0.03780107 9.61845979 -0.02053747 4.809243 0 0 Z " fill="#040704" transform="translate(515,484)"/>
<path d="M0 0 C4.04143985 1.80421422 5.54261484 3.26818374 7.875 7 C10.49338589 14.26290371 9.81067075 22.97678101 7.03515625 30.08984375 C4.94245313 33.95147328 2.33316919 36.25487611 -1.95703125 37.625 C-6.8505016 38.52322783 -9.9484443 37.76242434 -14 35 C-18.80936473 29.80068678 -19.20340507 25.54277839 -19.25 18.6875 C-19.270625 17.94048828 -19.29125 17.19347656 -19.3125 16.42382812 C-19.35499293 10.37389756 -17.96995585 6.33932257 -14 1.625 C-9.40336731 -0.86484271 -5.11149125 -0.7280685 0 0 Z " fill="#F6E39F" transform="translate(332,339)"/>
<path d="M0 0 C4.04143985 1.80421422 5.54261484 3.26818374 7.875 7 C10.49338589 14.26290371 9.81067075 22.97678101 7.03515625 30.08984375 C4.94245313 33.95147328 2.33316919 36.25487611 -1.95703125 37.625 C-6.8505016 38.52322783 -9.9484443 37.76242434 -14 35 C-18.77749628 29.83513916 -19.22511729 25.56585171 -19.3125 18.75 C-19.34150391 18.01136719 -19.37050781 17.27273438 -19.40039062 16.51171875 C-19.46529236 10.85029037 -18.28947323 7.63176265 -15 3 C-10.71912399 -1.27213953 -5.69206504 -0.72594453 0 0 Z " fill="#AFB8F6" transform="translate(329,624)"/>
<path d="M0 0 C0.66 0.33 1.32 0.66 2 1 C2 1.66 2 2.32 2 3 C2.598125 3.185625 3.19625 3.37125 3.8125 3.5625 C7.0747923 5.70629208 8.12226436 8.33004735 9 12 C9.7031362 18.92684171 9.72245366 25.9087122 6 32 C2.18584943 36.26821611 -1.15332012 37.87419964 -6.75390625 38.1953125 C-10.77989125 37.84522685 -12.79813296 36.49745629 -16 34 C-19.12123394 29.10666361 -19.46383935 25.11662136 -19.375 19.5 C-19.38660156 18.76652344 -19.39820313 18.03304687 -19.41015625 17.27734375 C-19.37712876 11.12322222 -17.52302951 7.18935492 -14 2.125 C-9.56337808 -1.0176072 -5.2826782 -0.59547097 0 0 Z " fill="#F79B96" transform="translate(333,204)"/>
<path d="M0 0 C2.64 0 5.28 0 8 0 C8 22.77 8 45.54 8 69 C5.36 69 2.72 69 0 69 C0 46.23 0 23.46 0 0 Z " fill="#070A07" transform="translate(623,465)"/>
<path d="M0 0 C0 3.96 0 7.92 0 12 C-0.66 12 -1.32 12 -2 12 C-2.309375 12.86625 -2.309375 12.86625 -2.625 13.75 C-4.63961421 17.04664144 -6.53557624 18.26778812 -10 20 C-14.38685889 20.62965956 -18.33942879 20.97323913 -22.24609375 18.68359375 C-24 17 -24 17 -24.9375 13.625 C-25.00960602 9.44285092 -24.86834586 8.03707208 -22 5 C-15.59923941 1.82709078 -7.1291068 0 0 0 Z " fill="#ACB5F2" transform="translate(390,642)"/>
<path d="M0 0 C0 3.96 0 7.92 0 12 C-0.66 12 -1.32 12 -2 12 C-2.309375 12.86625 -2.309375 12.86625 -2.625 13.75 C-4.63961421 17.04664144 -6.53557624 18.26778812 -10 20 C-14.38685889 20.62965956 -18.33942879 20.97323913 -22.24609375 18.68359375 C-24 17 -24 17 -24.9375 13.625 C-25.00960602 9.44285092 -24.86834586 8.03707208 -22 5 C-15.59923941 1.82709078 -7.1291068 0 0 0 Z " fill="#F2E09D" transform="translate(393,357)"/>
<path d="M0 0 C0 0.66 0 1.32 0 2 C0.598125 2.226875 1.19625 2.45375 1.8125 2.6875 C4.68011113 4.40806668 5.62059949 5.96531888 7 9 C7 10.98 7 12.96 7 15 C-2.24 15 -11.48 15 -21 15 C-19.86984353 7.08890469 -19.86984353 7.08890469 -16.625 3.625 C-16.01914062 2.95726562 -15.41328125 2.28953125 -14.7890625 1.6015625 C-10.65528236 -2.09898304 -4.99916179 -1.66638726 0 0 Z " fill="#A5F0A8" transform="translate(440,490)"/>
<path d="M0 0 C0.45913774 8.75762729 0.45913774 8.75762729 -1.0625 12.875 C-4.30460773 16.4308601 -7.55219758 18.66564588 -12.31640625 19.31640625 C-16.5059823 19.41993778 -19.30545728 19.08495639 -23 17 C-23 16.34 -23 15.68 -23 15 C-23.66 15 -24.32 15 -25 15 C-25.48340328 8.71575734 -25.48340328 8.71575734 -23.5859375 5.90625 C-19.80929153 3.1222572 -15.93232344 2.57984098 -11.375 1.75 C-10.50359375 1.57726562 -9.6321875 1.40453125 -8.734375 1.2265625 C-2.44580853 0 -2.44580853 0 0 0 Z " fill="#AAF8AD" transform="translate(600,509)"/>
<path d="M0 0 C0.62121395 9.85314348 0.62121395 9.85314348 -1.625 14 C-7.01378292 18.53792246 -11.54133544 19.62223214 -18.49609375 19.4140625 C-21 19 -21 19 -23.6875 16.875 C-25.21751965 13.52352838 -25.6191438 11.63746981 -25 8 C-21.59925696 3.14046829 -16.85494892 2.74784144 -11.375 1.75 C-10.50359375 1.57726562 -9.6321875 1.40453125 -8.734375 1.2265625 C-2.44580853 0 -2.44580853 0 0 0 Z " fill="#F89B97" transform="translate(394,223)"/>
<path d="M0 0 C0.3690205 10.55808656 0.3690205 10.55808656 -2 15 C-3.28317892 11.15046324 -3.06643637 8.05261865 -3 4 C-3.66 3.67 -4.32 3.34 -5 3 C-2.25 0 -2.25 0 0 0 Z " fill="#C3B37D" transform="translate(341,376)"/>
<path d="M0 0 C0.05416188 1.60379341 0.09286638 3.20811406 0.125 4.8125 C0.14820313 5.70582031 0.17140625 6.59914063 0.1953125 7.51953125 C0 10 0 10 -2 13 C-2.33 10.03 -2.66 7.06 -3 4 C-3.99 4 -4.98 4 -6 4 C-2.25 0 -2.25 0 0 0 Z " fill="#858CBD" transform="translate(338,661)"/>
<path d="M0 0 C1.17046875 0.03609375 2.3409375 0.0721875 3.546875 0.109375 C4.43890625 0.15578125 5.3309375 0.2021875 6.25 0.25 C6.25 0.58 6.25 0.91 6.25 1.25 C5.41855469 1.27578125 4.58710937 1.3015625 3.73046875 1.328125 C2.64378906 1.38484375 1.55710937 1.4415625 0.4375 1.5 C-1.18091797 1.56960938 -1.18091797 1.56960938 -2.83203125 1.640625 C-5.86650344 1.96545892 -5.86650344 1.96545892 -7.51171875 4.296875 C-7.92035156 4.94140625 -8.32898438 5.5859375 -8.75 6.25 C-9.41 6.25 -10.07 6.25 -10.75 6.25 C-11.08 7.24 -11.41 8.23 -11.75 9.25 C-11.41809114 6.26282024 -10.94947005 4.51468141 -9.125 2.09375 C-5.94724854 -0.37318863 -3.9714163 -0.15885665 0 0 Z " fill="#74AA76" transform="translate(588.75,488.75)"/>
<path d="M0 0 C3.3 0 6.6 0 10 0 C9.67 1.32 9.34 2.64 9 4 C8.67 3.34 8.34 2.68 8 2 C5.36 2 2.72 2 0 2 C0 1.34 0 0.68 0 0 Z " fill="#C67C78" transform="translate(448,196)"/>
</svg>
